<mxfile host="app.diagrams.net" modified="2024-07-20T05:49:37.628Z" agent="Mozilla/5.0 (X11; Linux x86_64) AppleWebKit/537.36 (KHTML, like Gecko) Chrome/126.0.0.0 Safari/537.36" etag="vdijWKovBGbT2P-bknJ0" version="24.7.2" type="device">
  <diagram name="Page-1" id="fzzLN8c2KJLzVIAepwUw">
    <mxGraphModel dx="1252" dy="1643" grid="1" gridSize="10" guides="1" tooltips="1" connect="1" arrows="1" fold="1" page="1" pageScale="1" pageWidth="850" pageHeight="1100" math="0" shadow="0">
      <root>
        <mxCell id="0" />
        <mxCell id="1" parent="0" />
        <mxCell id="4M-uCaquSKFT0tMLOf2c-18" style="edgeStyle=orthogonalEdgeStyle;rounded=0;orthogonalLoop=1;jettySize=auto;html=1;entryX=0;entryY=0.5;entryDx=0;entryDy=0;" parent="1" source="4M-uCaquSKFT0tMLOf2c-2" target="4M-uCaquSKFT0tMLOf2c-12" edge="1">
          <mxGeometry relative="1" as="geometry" />
        </mxCell>
        <mxCell id="4M-uCaquSKFT0tMLOf2c-2" value="Start" style="ellipse;whiteSpace=wrap;html=1;aspect=fixed;" parent="1" vertex="1">
          <mxGeometry x="160" y="140" width="80" height="80" as="geometry" />
        </mxCell>
        <mxCell id="4M-uCaquSKFT0tMLOf2c-51" style="edgeStyle=orthogonalEdgeStyle;rounded=0;orthogonalLoop=1;jettySize=auto;html=1;entryX=0.75;entryY=1;entryDx=0;entryDy=0;" parent="1" source="4M-uCaquSKFT0tMLOf2c-7" target="4M-uCaquSKFT0tMLOf2c-42" edge="1">
          <mxGeometry relative="1" as="geometry" />
        </mxCell>
        <mxCell id="4M-uCaquSKFT0tMLOf2c-7" value="Postgressql" style="shape=cylinder3;whiteSpace=wrap;html=1;boundedLbl=1;backgroundOutline=1;size=15;" parent="1" vertex="1">
          <mxGeometry x="1220" y="260" width="90" height="95" as="geometry" />
        </mxCell>
        <mxCell id="4M-uCaquSKFT0tMLOf2c-12" value="Login&amp;nbsp;" style="rounded=1;whiteSpace=wrap;html=1;" parent="1" vertex="1">
          <mxGeometry x="320" y="150" width="120" height="60" as="geometry" />
        </mxCell>
        <mxCell id="4M-uCaquSKFT0tMLOf2c-24" value="" style="edgeStyle=orthogonalEdgeStyle;rounded=0;orthogonalLoop=1;jettySize=auto;html=1;" parent="1" source="4M-uCaquSKFT0tMLOf2c-20" target="4M-uCaquSKFT0tMLOf2c-23" edge="1">
          <mxGeometry relative="1" as="geometry" />
        </mxCell>
        <mxCell id="4M-uCaquSKFT0tMLOf2c-39" style="edgeStyle=orthogonalEdgeStyle;rounded=0;orthogonalLoop=1;jettySize=auto;html=1;exitX=0.25;exitY=0.25;exitDx=0;exitDy=0;exitPerimeter=0;entryX=0.5;entryY=0;entryDx=0;entryDy=0;" parent="1" source="4M-uCaquSKFT0tMLOf2c-20" target="4M-uCaquSKFT0tMLOf2c-12" edge="1">
          <mxGeometry relative="1" as="geometry">
            <Array as="points">
              <mxPoint x="650" y="130" />
              <mxPoint x="380" y="130" />
            </Array>
          </mxGeometry>
        </mxCell>
        <mxCell id="4M-uCaquSKFT0tMLOf2c-57" style="edgeStyle=orthogonalEdgeStyle;rounded=0;orthogonalLoop=1;jettySize=auto;html=1;exitX=0.31;exitY=0.8;exitDx=0;exitDy=0;exitPerimeter=0;strokeColor=#66CC00;" parent="1" source="4M-uCaquSKFT0tMLOf2c-20" target="4M-uCaquSKFT0tMLOf2c-12" edge="1">
          <mxGeometry relative="1" as="geometry">
            <Array as="points">
              <mxPoint x="657" y="230" />
              <mxPoint x="380" y="230" />
            </Array>
          </mxGeometry>
        </mxCell>
        <mxCell id="4M-uCaquSKFT0tMLOf2c-58" value="Token" style="edgeLabel;html=1;align=center;verticalAlign=middle;resizable=0;points=[];" parent="4M-uCaquSKFT0tMLOf2c-57" vertex="1" connectable="0">
          <mxGeometry x="0.0348" y="-1" relative="1" as="geometry">
            <mxPoint as="offset" />
          </mxGeometry>
        </mxCell>
        <mxCell id="4M-uCaquSKFT0tMLOf2c-64" style="edgeStyle=orthogonalEdgeStyle;rounded=0;orthogonalLoop=1;jettySize=auto;html=1;exitX=0.31;exitY=0.8;exitDx=0;exitDy=0;exitPerimeter=0;entryX=0.25;entryY=1;entryDx=0;entryDy=0;strokeColor=#FF3333;" parent="1" source="4M-uCaquSKFT0tMLOf2c-20" target="4M-uCaquSKFT0tMLOf2c-12" edge="1">
          <mxGeometry relative="1" as="geometry">
            <Array as="points">
              <mxPoint x="657" y="270" />
              <mxPoint x="350" y="270" />
            </Array>
          </mxGeometry>
        </mxCell>
        <mxCell id="4M-uCaquSKFT0tMLOf2c-65" value="Return data tidak di temukan" style="edgeLabel;html=1;align=center;verticalAlign=middle;resizable=0;points=[];" parent="4M-uCaquSKFT0tMLOf2c-64" vertex="1" connectable="0">
          <mxGeometry x="0.1532" y="1" relative="1" as="geometry">
            <mxPoint as="offset" />
          </mxGeometry>
        </mxCell>
        <mxCell id="4M-uCaquSKFT0tMLOf2c-20" value="Rest API" style="ellipse;shape=cloud;whiteSpace=wrap;html=1;" parent="1" vertex="1">
          <mxGeometry x="620" y="132.5" width="120" height="80" as="geometry" />
        </mxCell>
        <mxCell id="4M-uCaquSKFT0tMLOf2c-21" style="edgeStyle=orthogonalEdgeStyle;rounded=0;orthogonalLoop=1;jettySize=auto;html=1;entryX=0.107;entryY=0.552;entryDx=0;entryDy=0;entryPerimeter=0;" parent="1" source="4M-uCaquSKFT0tMLOf2c-12" target="4M-uCaquSKFT0tMLOf2c-20" edge="1">
          <mxGeometry relative="1" as="geometry" />
        </mxCell>
        <mxCell id="4M-uCaquSKFT0tMLOf2c-22" value="Username &amp;amp; Password" style="edgeLabel;html=1;align=center;verticalAlign=middle;resizable=0;points=[];" parent="4M-uCaquSKFT0tMLOf2c-21" vertex="1" connectable="0">
          <mxGeometry x="0.153" y="2" relative="1" as="geometry">
            <mxPoint as="offset" />
          </mxGeometry>
        </mxCell>
        <mxCell id="4M-uCaquSKFT0tMLOf2c-43" value="Iya" style="edgeStyle=orthogonalEdgeStyle;rounded=0;orthogonalLoop=1;jettySize=auto;html=1;" parent="1" source="4M-uCaquSKFT0tMLOf2c-23" target="4M-uCaquSKFT0tMLOf2c-42" edge="1">
          <mxGeometry relative="1" as="geometry" />
        </mxCell>
        <mxCell id="4M-uCaquSKFT0tMLOf2c-23" value="Validasi" style="rhombus;whiteSpace=wrap;html=1;" parent="1" vertex="1">
          <mxGeometry x="840" y="132.5" width="80" height="80" as="geometry" />
        </mxCell>
        <mxCell id="4M-uCaquSKFT0tMLOf2c-27" value="Karakter contoh password harus campuran karakter, dan minimal 12 karakter di campur dengan angka" style="rounded=0;whiteSpace=wrap;html=1;" parent="1" vertex="1">
          <mxGeometry x="900" y="-60" width="170" height="90" as="geometry" />
        </mxCell>
        <mxCell id="4M-uCaquSKFT0tMLOf2c-35" value="Cek di database ada username dan passwordnya" style="rounded=0;whiteSpace=wrap;html=1;" parent="1" vertex="1">
          <mxGeometry x="1160" y="-60" width="170" height="90" as="geometry" />
        </mxCell>
        <mxCell id="4M-uCaquSKFT0tMLOf2c-50" style="edgeStyle=orthogonalEdgeStyle;rounded=0;orthogonalLoop=1;jettySize=auto;html=1;entryX=1;entryY=0.5;entryDx=0;entryDy=0;" parent="1" source="4M-uCaquSKFT0tMLOf2c-42" target="4M-uCaquSKFT0tMLOf2c-47" edge="1">
          <mxGeometry relative="1" as="geometry">
            <Array as="points">
              <mxPoint x="1020" y="360" />
            </Array>
          </mxGeometry>
        </mxCell>
        <mxCell id="4M-uCaquSKFT0tMLOf2c-42" value="Cek database" style="whiteSpace=wrap;html=1;" parent="1" vertex="1">
          <mxGeometry x="1000" y="142.5" width="120" height="60" as="geometry" />
        </mxCell>
        <mxCell id="4M-uCaquSKFT0tMLOf2c-44" style="edgeStyle=orthogonalEdgeStyle;rounded=0;orthogonalLoop=1;jettySize=auto;html=1;entryX=0.5;entryY=0;entryDx=0;entryDy=0;entryPerimeter=0;" parent="1" source="4M-uCaquSKFT0tMLOf2c-42" target="4M-uCaquSKFT0tMLOf2c-7" edge="1">
          <mxGeometry relative="1" as="geometry" />
        </mxCell>
        <mxCell id="4M-uCaquSKFT0tMLOf2c-53" value="Iya" style="edgeStyle=orthogonalEdgeStyle;rounded=0;orthogonalLoop=1;jettySize=auto;html=1;" parent="1" source="4M-uCaquSKFT0tMLOf2c-47" target="4M-uCaquSKFT0tMLOf2c-52" edge="1">
          <mxGeometry relative="1" as="geometry" />
        </mxCell>
        <mxCell id="4M-uCaquSKFT0tMLOf2c-47" value="Ditemukan username dan password" style="rhombus;whiteSpace=wrap;html=1;" parent="1" vertex="1">
          <mxGeometry x="820" y="310" width="90" height="100" as="geometry" />
        </mxCell>
        <mxCell id="4M-uCaquSKFT0tMLOf2c-49" value="Tidak sesuai validasi" style="edgeStyle=orthogonalEdgeStyle;rounded=0;orthogonalLoop=1;jettySize=auto;html=1;entryX=0.313;entryY=-0.003;entryDx=0;entryDy=0;entryPerimeter=0;" parent="1" source="4M-uCaquSKFT0tMLOf2c-23" target="4M-uCaquSKFT0tMLOf2c-12" edge="1">
          <mxGeometry relative="1" as="geometry">
            <Array as="points">
              <mxPoint x="880" y="110" />
              <mxPoint x="358" y="110" />
            </Array>
          </mxGeometry>
        </mxCell>
        <mxCell id="4M-uCaquSKFT0tMLOf2c-55" style="edgeStyle=orthogonalEdgeStyle;rounded=0;orthogonalLoop=1;jettySize=auto;html=1;strokeColor=#66CC00;" parent="1" source="4M-uCaquSKFT0tMLOf2c-52" edge="1">
          <mxGeometry relative="1" as="geometry">
            <mxPoint x="680" y="220" as="targetPoint" />
          </mxGeometry>
        </mxCell>
        <mxCell id="4M-uCaquSKFT0tMLOf2c-52" value="Proses encrypt data jadi sebuah token" style="whiteSpace=wrap;html=1;" parent="1" vertex="1">
          <mxGeometry x="620" y="330" width="120" height="60" as="geometry" />
        </mxCell>
        <mxCell id="4M-uCaquSKFT0tMLOf2c-63" value="Tidak di temukan" style="edgeStyle=orthogonalEdgeStyle;rounded=0;orthogonalLoop=1;jettySize=auto;html=1;entryX=0.8;entryY=0.8;entryDx=0;entryDy=0;entryPerimeter=0;exitX=0.5;exitY=0;exitDx=0;exitDy=0;strokeColor=#FF3333;" parent="1" source="4M-uCaquSKFT0tMLOf2c-47" target="4M-uCaquSKFT0tMLOf2c-20" edge="1">
          <mxGeometry relative="1" as="geometry">
            <Array as="points">
              <mxPoint x="820" y="310" />
              <mxPoint x="820" y="197" />
            </Array>
          </mxGeometry>
        </mxCell>
        <mxCell id="4M-uCaquSKFT0tMLOf2c-66" value="" style="endArrow=none;dashed=1;html=1;rounded=0;entryX=0.452;entryY=0.998;entryDx=0;entryDy=0;entryPerimeter=0;" parent="1" target="4M-uCaquSKFT0tMLOf2c-27" edge="1">
          <mxGeometry width="50" height="50" relative="1" as="geometry">
            <mxPoint x="890" y="132.5" as="sourcePoint" />
            <mxPoint x="940" y="82.5" as="targetPoint" />
          </mxGeometry>
        </mxCell>
        <mxCell id="4M-uCaquSKFT0tMLOf2c-67" value="" style="endArrow=none;dashed=1;html=1;rounded=0;entryX=0.452;entryY=0.998;entryDx=0;entryDy=0;entryPerimeter=0;" parent="1" edge="1">
          <mxGeometry width="50" height="50" relative="1" as="geometry">
            <mxPoint x="1120" y="142.5" as="sourcePoint" />
            <mxPoint x="1207" y="40" as="targetPoint" />
          </mxGeometry>
        </mxCell>
        <mxCell id="4M-uCaquSKFT0tMLOf2c-68" value="Notifikasi gagal login/ Pesan gagal login" style="rounded=0;whiteSpace=wrap;html=1;" parent="1" vertex="1">
          <mxGeometry x="270" y="330" width="120" height="60" as="geometry" />
        </mxCell>
        <mxCell id="4M-uCaquSKFT0tMLOf2c-69" value="" style="endArrow=none;dashed=1;html=1;rounded=0;" parent="1" edge="1">
          <mxGeometry width="50" height="50" relative="1" as="geometry">
            <mxPoint x="360" y="332.5" as="sourcePoint" />
            <mxPoint x="410" y="282.5" as="targetPoint" />
          </mxGeometry>
        </mxCell>
      </root>
    </mxGraphModel>
  </diagram>
</mxfile>
